<svg xmlns="http://www.w3.org/2000/svg" viewBox="0 0 128 128">
	<defs>
		<style type="text/css">
			:root {
				--faviconBackground:url(#rainbow);
			}

			.achtergrond {
				fill:var(--faviconBackground);
			}

			.outline {
				stroke:black; 
				stroke-width:12; 
				stroke-miterlimit:10;
			}

			.tekst {
				fill:white;
			}

			@media (prefers-color-scheme:dark) {
				:root {
					--faviconBackground:url(#rainbowdark);
				}
			}

			@media (prefers-reduced-motion: reduce) {
				:root {
					--faviconBackground:url(#rainbowboring);
				}
			}

			@media (prefers-reduced-motion: reduce) and (prefers-color-scheme:dark){
				:root {
					--faviconBackground:url(#rainbowdarkboring);
				}
			}

		</style>

		<linearGradient id="rainbow" gradientTransform="rotate(0 64 64)" gradientUnits="userSpaceOnUse" x1="0" y1="128" x2="512" y2="-384">
			<stop  offset="0" style="stop-color:dodgerblue"></stop>
			<stop  offset="0.25" style="stop-color:deeppink"></stop>
			<stop  offset="0.375" style="stop-color:darkorange"></stop>
			<stop  offset="0.5" style="stop-color:gold"></stop>
			<stop  offset="0.625" style="stop-color:yellowgreen"></stop>
			<stop  offset="0.75" style="stop-color:dodgerblue"></stop>
			<stop  offset="1" style="stop-color:deeppink"></stop>

			<animate attributeName="x1" from="0" to="-384" dur="10s" repeatCount="indefinite"></animate>
			<animate attributeName="y1" from="128" to="512" dur="10s" repeatCount="indefinite"></animate>
			<animate attributeName="x2" from="512" to="128" dur="10s" repeatCount="indefinite"></animate>
			<animate attributeName="y2" from="-384" to="0" dur="10s" repeatCount="indefinite"></animate>

			<animateTransform attributeName="gradientTransform"
                          type="rotate"
                          from="0 64 64"
                          to="360 64 64"
                          dur="19s"
                          repeatCount="indefinite"/>
		</linearGradient>

		<linearGradient id="rainbowdark" gradientTransform="rotate(0 64 64)" gradientUnits="userSpaceOnUse" x1="0" y1="128" x2="512" y2="-384">
			<stop  offset="0" style="stop-color:deeppink"></stop>
			<stop  offset="0.125" style="stop-color:darkorange"></stop>
			<stop  offset="0.25" style="stop-color:gold"></stop>
			<stop  offset="0.375" style="stop-color:yellowgreen"></stop>
			<stop  offset="0.5" style="stop-color:dodgerblue"></stop>
			<stop  offset="0.75" style="stop-color:deeppink"></stop>
			<stop  offset="0.875" style="stop-color:darkorange"></stop>
			<stop  offset="1" style="stop-color:gold"></stop>

			<animate attributeName="x1" from="0" to="-384" dur="10s" repeatCount="indefinite"></animate>
			<animate attributeName="y1" from="128" to="512" dur="10s" repeatCount="indefinite"></animate>
			<animate attributeName="x2" from="512" to="128" dur="10s" repeatCount="indefinite"></animate>
			<animate attributeName="y2" from="-384" to="0" dur="10s" repeatCount="indefinite"></animate>

			<animateTransform attributeName="gradientTransform"
                          type="rotate"
                          from="0 64 64"
                          to="360 64 64"
                          dur="19s"
                          repeatCount="indefinite"/>
		</linearGradient>

		<linearGradient id="rainbowboring" gradientUnits="userSpaceOnUse" x1="0" y1="128" x2="512" y2="-384">
			<stop  offset="0" style="stop-color:dodgerblue"></stop>
			<stop  offset="0.25" style="stop-color:deeppink"></stop>
			<stop  offset="0.375" style="stop-color:darkorange"></stop>
			<stop  offset="0.5" style="stop-color:gold"></stop>
			<stop  offset="0.625" style="stop-color:yellowgreen"></stop>
			<stop  offset="0.75" style="stop-color:dodgerblue"></stop>
			<stop  offset="1" style="stop-color:deeppink"></stop>
		</linearGradient>
		
		<linearGradient id="rainbowdarkboring" gradientUnits="userSpaceOnUse" x1="0" y1="128" x2="512" y2="-384">
			<stop  offset="0" style="stop-color:deeppink"></stop>
			<stop  offset="0.125" style="stop-color:darkorange"></stop>
			<stop  offset="0.25" style="stop-color:gold"></stop>
			<stop  offset="0.375" style="stop-color:yellowgreen"></stop>
			<stop  offset="0.5" style="stop-color:dodgerblue"></stop>
			<stop  offset="0.75" style="stop-color:deeppink"></stop>
			<stop  offset="0.875" style="stop-color:darkorange"></stop>
			<stop  offset="1" style="stop-color:gold"></stop>
		</linearGradient>
	</defs>

	<rect class="achtergrond" width="128" height="128"/>
  <g class="outline">
    <path d="M124.7,49.9c-2-4.2-5.1-7.6-8.9-9.8c-2.2-1.4-4.9-2.4-7.9-2.9c-2.7-0.5-6.6-0.7-12-0.7h-8.8c-3.1,0-5.6,0.8-7.4,2.4
    c-1.3,1.2-2.9,3.3-3.1,6.9h-6c-2.7,0-4.9,0.6-6.6,1.7c-1.7-1.1-3.9-1.7-6.6-1.7h-7.8v-0.1c0-3.1-1-5.5-2.9-7.2
    c-1.7-1.4-3.9-2.1-6.9-2.1H10.8c-3,0-5.5,0.8-7.3,2.5c-1.4,1.2-3,3.6-3,7.5c0,3.6,1.5,5.8,2.7,7.1c0.4,0.5,1,1,1.7,1.4v17.5
    c-0.7,0.4-1.3,0.9-1.7,1.4c-1.2,1.2-2.7,3.5-2.7,7.1c0,4,1.6,6.3,3,7.5c1.8,1.6,4.3,2.5,7.4,2.5h10.7c3.1,0,5.5-0.8,7.4-2.5
    c1.4-1.2,3-3.5,3-7.5c0-1.6-0.3-2.9-0.7-4c2.8-0.4,4.6-1.9,5.6-3.1c1.5-1.8,2.2-4.2,2.2-7.2v-2.3c0.3,0,0.6,0,0.9,0
    c0.8,0,1.6-0.1,2.3-0.2c0.6,0.4,1.3,0.8,2.1,1l8.6,19.4l0.2,0.5c1.8,4.2,5.5,6.7,10.4,6.7c2.4,0,4.4-0.4,5.9-1.4
    c1.7-1,3.1-2.7,4.5-5.6l2.9-6.3c-0.1,0.7-0.2,1.5-0.2,2.4c0,4,1.7,6.3,3.1,7.5c1.8,1.6,4.3,2.4,7.5,2.4h10.7c4.2,0,7.4-0.2,9.7-0.6
    c2.5-0.5,4.9-1.2,6.8-2.3c4.3-2.3,7.6-5.6,9.9-10c2.2-4.2,3.3-9,3.3-14.3C127.6,58.5,126.6,53.9,124.7,49.9z M105.5,63.4
    c0,2.8-0.5,5-1.5,6c-0.4,0.4-1,0.7-1.7,1V56.6c0.6,0.2,1.2,0.5,1.6,1C105.2,58.9,105.5,61.5,105.5,63.4z M79.4,73.6
    c-0.2,0.2-0.4,0.5-0.6,0.7l2.4-5v3C80.4,72.7,79.8,73.1,79.4,73.6z"/>
  </g>
  <g class="tekst">
    <path class="st1" d="M36,49.9H19.4v9.1h6.2v-0.4c0-1.3,0.3-2.3,0.9-3c0.6-0.7,1.5-1,2.7-1c1.1,0,1.9,0.3,2.6,0.9
      c0.7,0.6,1,1.4,1,2.3v1.2v7.4c0,1.6-0.3,2.7-0.9,3.4c-0.6,0.7-1.5,1-2.8,1c-1.2,0-2.1-0.3-2.7-0.9c-0.6-0.6-0.9-1.6-0.9-2.9v-0.6
      h-6.2v10.4h2c1.6,0,2.7,0.3,3.4,0.9c0.7,0.6,1,1.6,1,2.9c0,1.4-0.3,2.4-1,3c-0.7,0.6-1.8,0.9-3.4,0.9H10.8c-1.5,0-2.7-0.3-3.4-0.9
      c-0.7-0.6-1-1.6-1-3c0-1.3,0.3-2.2,1-2.9c0.6-0.7,1.6-1,2.8-1h0.6V50.3h-0.6c-1.2,0-2.1-0.3-2.8-1c-0.7-0.7-1-1.6-1-2.9
      c0-1.4,0.4-2.4,1.1-3c0.7-0.6,1.8-0.9,3.3-0.9H40c1.4,0,2.4,0.2,2.9,0.7c0.5,0.4,0.8,1.3,0.8,2.6v8c0,1.6-0.3,2.7-0.9,3.5
      c-0.6,0.7-1.6,1.1-2.9,1.1s-2.3-0.3-2.9-1.1c-0.6-0.7-0.9-1.9-0.9-3.5V49.9z"/>
    <path class="st1" d="M57.5,59.6l6.4,15.2l6.7-15.2h-0.6c-1.3,0-2.3-0.3-2.9-1c-0.7-0.7-1-1.6-1-2.9c0-1.4,0.3-2.4,1-3
      c0.7-0.6,1.8-0.9,3.5-0.9H79c1.7,0,2.8,0.3,3.5,0.9c0.7,0.6,1,1.6,1,3c0,1.3-0.3,2.3-1,2.9c-0.7,0.7-1.6,1-2.9,1H79L68.4,82.1
      c-0.8,1.6-1.5,2.6-2.1,3c-0.6,0.4-1.6,0.6-2.9,0.6c-2.4,0-4-1-4.8-3c-0.1-0.2-0.2-0.4-0.2-0.5l-9.9-22.5h-0.6c-1.3,0-2.3-0.3-2.9-1
      c-0.7-0.7-1-1.6-1-2.9c0-1.4,0.3-2.4,1-3c0.7-0.6,1.9-0.9,3.5-0.9h9.1c1.6,0,2.8,0.3,3.5,0.9c0.7,0.6,1,1.6,1,3
      c0,1.3-0.3,2.3-1,2.9c-0.7,0.7-1.6,1-2.9,1H57.5z"/>
    <path class="st1" d="M87.1,76.9V50.3h-0.6c-1.3,0-2.3-0.3-2.9-1c-0.7-0.7-1-1.6-1-2.9c0-1.4,0.4-2.4,1.1-3c0.7-0.6,1.9-0.9,3.5-0.9
      h6.7h2.1c5,0,8.6,0.2,10.9,0.6c2.3,0.4,4.3,1.1,5.9,2.1c2.9,1.7,5.1,4.2,6.6,7.3c1.5,3.2,2.3,6.8,2.3,11c0,4.4-0.9,8.2-2.6,11.5
      c-1.7,3.3-4.2,5.8-7.4,7.5c-1.5,0.8-3.1,1.3-5.1,1.7c-1.9,0.3-4.8,0.5-8.7,0.5h-4h-6.7c-1.6,0-2.8-0.3-3.5-0.9c-0.7-0.6-1-1.6-1-3
      c0-1.3,0.3-2.2,1-2.9c0.7-0.7,1.6-1,2.9-1H87.1z M96.3,50.2v26.7h2c4.5,0,7.8-1.1,9.9-3.3c2.1-2.2,3.2-5.6,3.2-10.1
      c0-4.5-1.1-7.8-3.3-10.1c-2.2-2.2-5.4-3.3-9.8-3.3c-0.6,0-1,0-1.3,0C96.8,50.1,96.5,50.1,96.3,50.2z"/>
  </g>
</svg>